<svg xmlns="http://www.w3.org/2000/svg">
<symbol id="lnr-envelope" viewBox="0 0 1024 1024"><path class="path1" d="M896 307.2h-819.2c-42.347 0-76.8 34.453-76.8 76.8v460.8c0 42.349 34.453 76.8 76.8 76.8h819.2c42.349 0 76.8-34.451 76.8-76.8v-460.8c0-42.347-34.451-76.8-76.8-76.8zM896 358.4c1.514 0 2.99 0.158 4.434 0.411l-385.632 257.090c-14.862 9.907-41.938 9.907-56.802 0l-385.634-257.090c1.443-0.253 2.92-0.411 4.434-0.411h819.2zM896 870.4h-819.2c-14.115 0-25.6-11.485-25.6-25.6v-438.566l378.4 252.267c15.925 10.618 36.363 15.925 56.8 15.925s40.877-5.307 56.802-15.925l378.398-252.267v438.566c0 14.115-11.485 25.6-25.6 25.6z"></path></symbol>

<symbol id="lnr-magnifier" viewBox="0 0 1024 1024"><path class="path1" d="M966.070 981.101l-304.302-331.965c68.573-71.754 106.232-165.549 106.232-265.136 0-102.57-39.942-199-112.47-271.53s-168.96-112.47-271.53-112.47-199 39.942-271.53 112.47-112.47 168.96-112.47 271.53 39.942 199.002 112.47 271.53 168.96 112.47 271.53 112.47c88.362 0 172.152-29.667 240.043-84.248l304.285 331.947c5.050 5.507 11.954 8.301 18.878 8.301 6.179 0 12.378-2.226 17.293-6.728 10.421-9.555 11.126-25.749 1.571-36.171zM51.2 384c0-183.506 149.294-332.8 332.8-332.8s332.8 149.294 332.8 332.8-149.294 332.8-332.8 332.8-332.8-149.294-332.8-332.8z"></path></symbol>

<symbol id="lnr-cart" viewBox="0 0 1024 1024"><path class="path1" d="M409.6 1024c-56.464 0-102.4-45.936-102.4-102.4s45.936-102.4 102.4-102.4 102.4 45.936 102.4 102.4-45.936 102.4-102.4 102.4zM409.6 870.4c-28.232 0-51.2 22.968-51.2 51.2s22.968 51.2 51.2 51.2 51.2-22.968 51.2-51.2-22.968-51.2-51.2-51.2z"></path><path class="path2" d="M768 1024c-56.464 0-102.4-45.936-102.4-102.4s45.936-102.4 102.4-102.4 102.4 45.936 102.4 102.4-45.936 102.4-102.4 102.4zM768 870.4c-28.232 0-51.2 22.968-51.2 51.2s22.968 51.2 51.2 51.2 51.2-22.968 51.2-51.2-22.968-51.2-51.2-51.2z"></path><path class="path3" d="M898.021 228.688c-12.859-15.181-32.258-23.888-53.221-23.888h-626.846l-5.085-30.506c-6.72-40.315-43.998-71.894-84.869-71.894h-51.2c-14.138 0-25.6 11.462-25.6 25.6s11.462 25.6 25.6 25.6h51.2c15.722 0 31.781 13.603 34.366 29.112l85.566 513.395c6.718 40.314 43.997 71.893 84.867 71.893h512c14.139 0 25.6-11.461 25.6-25.6s-11.461-25.6-25.6-25.6h-512c-15.722 0-31.781-13.603-34.366-29.11l-12.63-75.784 510.206-44.366c39.69-3.451 75.907-36.938 82.458-76.234l34.366-206.194c3.448-20.677-1.952-41.243-14.813-56.424zM862.331 276.694l-34.366 206.194c-2.699 16.186-20.043 32.221-36.39 33.645l-514.214 44.714-50.874-305.246h618.314c5.968 0 10.995 2.054 14.155 5.782 3.157 3.73 4.357 9.024 3.376 14.912z"></path></symbol>

<symbol id="lnr-alarm" viewBox="0 0 1024 1024"><title>alarm</title><path class="path1" d="M860.171 773.15c-58.576-44-92.171-111.194-92.171-184.35v-153.6c0-128.661-86.733-237.442-204.798-270.954l-0.002-36.246c0-42.347-34.451-76.8-76.8-76.8-42.347 0-76.8 34.453-76.8 76.8v36.245c-118.067 33.512-204.8 142.294-204.8 270.955v153.6c0 73.157-33.595 140.349-92.171 184.35-8.808 6.616-12.395 18.125-8.907 28.573 3.486 10.448 13.267 17.496 24.283 17.496h232.982c-1.709 8.384-2.587 16.955-2.587 25.581 0 70.579 57.421 128 128 128s128-57.421 128-128c0-8.626-0.878-17.197-2.584-25.581h232.981c11.016 0 20.795-7.046 24.283-17.496s-0.101-21.957-8.909-28.573zM460.8 128c0-14.115 11.485-25.6 25.6-25.6s25.6 11.485 25.6 25.6v26.774c-8.435-0.763-16.97-1.176-25.6-1.176s-17.166 0.413-25.6 1.176v-26.774zM563.2 844.8c0 42.347-34.453 76.8-76.8 76.8s-76.8-34.453-76.8-76.8c0-8.76 1.515-17.411 4.394-25.581h144.813c2.878 8.168 4.394 16.821 4.394 25.581zM191.571 768.019c13.075-15.826 24.437-33.051 33.744-51.27 20.362-39.858 30.685-82.906 30.685-127.949v-153.6c0-127.043 103.357-230.4 230.4-230.4s230.4 103.357 230.4 230.4v153.6c0 45.043 10.323 88.091 30.685 127.949 9.307 18.219 20.669 35.445 33.744 51.27h-589.658z"></path></symbol>
</svg>