<svg xmlns="http://www.w3.org/2000/svg">
<symbol id="lnr-envelope" viewBox="0 0 1024 1024"><path class="path1" d="M896 307.2h-819.2c-42.347 0-76.8 34.453-76.8 76.8v460.8c0 42.349 34.453 76.8 76.8 76.8h819.2c42.349 0 76.8-34.451 76.8-76.8v-460.8c0-42.347-34.451-76.8-76.8-76.8zM896 358.4c1.514 0 2.99 0.158 4.434 0.411l-385.632 257.090c-14.862 9.907-41.938 9.907-56.802 0l-385.634-257.090c1.443-0.253 2.92-0.411 4.434-0.411h819.2zM896 870.4h-819.2c-14.115 0-25.6-11.485-25.6-25.6v-438.566l378.4 252.267c15.925 10.618 36.363 15.925 56.8 15.925s40.877-5.307 56.802-15.925l378.398-252.267v438.566c0 14.115-11.485 25.6-25.6 25.6z"></path></symbol>

<symbol id="lnr-magnifier" viewBox="0 0 1024 1024"><path class="path1" d="M966.070 981.101l-304.302-331.965c68.573-71.754 106.232-165.549 106.232-265.136 0-102.57-39.942-199-112.47-271.53s-168.96-112.47-271.53-112.47-199 39.942-271.53 112.47-112.47 168.96-112.47 271.53 39.942 199.002 112.47 271.53 168.96 112.47 271.53 112.47c88.362 0 172.152-29.667 240.043-84.248l304.285 331.947c5.050 5.507 11.954 8.301 18.878 8.301 6.179 0 12.378-2.226 17.293-6.728 10.421-9.555 11.126-25.749 1.571-36.171zM51.2 384c0-183.506 149.294-332.8 332.8-332.8s332.8 149.294 332.8 332.8-149.294 332.8-332.8 332.8-332.8-149.294-332.8-332.8z"></path></symbol>

<symbol id="lnr-cart" viewBox="0 0 1024 1024"><path class="path1" d="M409.6 1024c-56.464 0-102.4-45.936-102.4-102.4s45.936-102.4 102.4-102.4 102.4 45.936 102.4 102.4-45.936 102.4-102.4 102.4zM409.6 870.4c-28.232 0-51.2 22.968-51.2 51.2s22.968 51.2 51.2 51.2 51.2-22.968 51.2-51.2-22.968-51.2-51.2-51.2z"></path><path class="path2" d="M768 1024c-56.464 0-102.4-45.936-102.4-102.4s45.936-102.4 102.4-102.4 102.4 45.936 102.4 102.4-45.936 102.4-102.4 102.4zM768 870.4c-28.232 0-51.2 22.968-51.2 51.2s22.968 51.2 51.2 51.2 51.2-22.968 51.2-51.2-22.968-51.2-51.2-51.2z"></path><path class="path3" d="M898.021 228.688c-12.859-15.181-32.258-23.888-53.221-23.888h-626.846l-5.085-30.506c-6.72-40.315-43.998-71.894-84.869-71.894h-51.2c-14.138 0-25.6 11.462-25.6 25.6s11.462 25.6 25.6 25.6h51.2c15.722 0 31.781 13.603 34.366 29.112l85.566 513.395c6.718 40.314 43.997 71.893 84.867 71.893h512c14.139 0 25.6-11.461 25.6-25.6s-11.461-25.6-25.6-25.6h-512c-15.722 0-31.781-13.603-34.366-29.11l-12.63-75.784 510.206-44.366c39.69-3.451 75.907-36.938 82.458-76.234l34.366-206.194c3.448-20.677-1.952-41.243-14.813-56.424zM862.331 276.694l-34.366 206.194c-2.699 16.186-20.043 32.221-36.39 33.645l-514.214 44.714-50.874-305.246h618.314c5.968 0 10.995 2.054 14.155 5.782 3.157 3.73 4.357 9.024 3.376 14.912z"></path></symbol>

<symbol id="lnr-alarm" viewBox="0 0 1024 1024"><title>alarm</title><path class="path1" d="M860.171 773.15c-58.576-44-92.171-111.194-92.171-184.35v-153.6c0-128.661-86.733-237.442-204.798-270.954l-0.002-36.246c0-42.347-34.451-76.8-76.8-76.8-42.347 0-76.8 34.453-76.8 76.8v36.245c-118.067 33.512-204.8 142.294-204.8 270.955v153.6c0 73.157-33.595 140.349-92.171 184.35-8.808 6.616-12.395 18.125-8.907 28.573 3.486 10.448 13.267 17.496 24.283 17.496h232.982c-1.709 8.384-2.587 16.955-2.587 25.581 0 70.579 57.421 128 128 128s128-57.421 128-128c0-8.626-0.878-17.197-2.584-25.581h232.981c11.016 0 20.795-7.046 24.283-17.496s-0.101-21.957-8.909-28.573zM460.8 128c0-14.115 11.485-25.6 25.6-25.6s25.6 11.485 25.6 25.6v26.774c-8.435-0.763-16.97-1.176-25.6-1.176s-17.166 0.413-25.6 1.176v-26.774zM563.2 844.8c0 42.347-34.453 76.8-76.8 76.8s-76.8-34.453-76.8-76.8c0-8.76 1.515-17.411 4.394-25.581h144.813c2.878 8.168 4.394 16.821 4.394 25.581zM191.571 768.019c13.075-15.826 24.437-33.051 33.744-51.27 20.362-39.858 30.685-82.906 30.685-127.949v-153.6c0-127.043 103.357-230.4 230.4-230.4s230.4 103.357 230.4 230.4v153.6c0 45.043 10.323 88.091 30.685 127.949 9.307 18.219 20.669 35.445 33.744 51.27h-589.658z"></path></symbol>

<symbol id="lnr-heart" viewBox="0 0 1024 1024"><path class="path1" d="M486.4 972.8c-4.283 0-8.566-1.074-12.434-3.222-4.808-2.67-119.088-66.624-235.122-171.376-68.643-61.97-123.467-125.363-162.944-188.418-50.365-80.443-75.901-160.715-75.901-238.584 0-148.218 120.582-268.8 268.8-268.8 50.173 0 103.462 18.805 150.051 52.952 27.251 19.973 50.442 44.043 67.549 69.606 17.107-25.565 40.299-49.634 67.55-69.606 46.589-34.147 99.878-52.952 150.050-52.952 148.218 0 268.8 120.582 268.8 268.8 0 77.869-25.538 158.141-75.901 238.584-39.478 63.054-94.301 126.446-162.944 188.418-116.034 104.754-230.314 168.706-235.122 171.376-3.867 2.149-8.15 3.222-12.434 3.222zM268.8 153.6c-119.986 0-217.6 97.614-217.6 217.6 0 155.624 120.302 297.077 221.224 388.338 90.131 81.504 181.44 138.658 213.976 158.042 32.536-19.384 123.845-76.538 213.976-158.042 100.922-91.261 221.224-232.714 221.224-388.338 0-119.986-97.616-217.6-217.6-217.6-87.187 0-171.856 71.725-193.314 136.096-3.485 10.453-13.267 17.504-24.286 17.504s-20.802-7.051-24.286-17.504c-21.456-64.371-106.125-136.096-193.314-136.096z"></path></symbol>

<symbol id="lnr-chevron-left" viewBox="0 0 1024 1024"><path class="path1" d="M716.8 1024c6.552 0 13.102-2.499 18.101-7.499 9.998-9.997 9.998-26.206 0-36.203l-442.698-442.698 442.698-442.699c9.998-9.997 9.998-26.206 0-36.203s-26.206-9.998-36.203 0l-460.8 460.8c-9.998 9.997-9.998 26.206 0 36.203l460.8 460.8c5 5 11.55 7.499 18.102 7.499z"></path></symbol>

<symbol id="lnr-chevron-right" viewBox="0 0 1024 1024"><title>chevron-right</title><path class="path1" d="M256 1024c-6.552 0-13.102-2.499-18.101-7.499-9.998-9.997-9.998-26.206 0-36.203l442.698-442.698-442.698-442.699c-9.998-9.997-9.998-26.206 0-36.203s26.206-9.998 36.203 0l460.8 460.8c9.998 9.997 9.998 26.206 0 36.203l-460.8 460.8c-5 5-11.55 7.499-18.102 7.499z"></path></symbol>
</svg>